<svg xmlns="http://www.w3.org/2000/svg" viewBox="0 0 900 420" width="900" height="420">
  <defs>
    <linearGradient id="bgGrad" x1="0%" y1="0%" x2="100%" y2="100%">
      <stop offset="0%" style="stop-color:#0f0c1a"/>
      <stop offset="50%" style="stop-color:#1a0f2e"/>
      <stop offset="100%" style="stop-color:#0c1a1f"/>
    </linearGradient>
    <linearGradient id="titleGrad" x1="0%" y1="0%" x2="100%" y2="100%">
      <stop offset="0%" style="stop-color:#ffd700"/>
      <stop offset="40%" style="stop-color:#ff8c00"/>
      <stop offset="70%" style="stop-color:#ff4500"/>
      <stop offset="100%" style="stop-color:#ffd700"/>
    </linearGradient>
    <linearGradient id="subGrad" x1="0%" y1="0%" x2="100%" y2="0%">
      <stop offset="0%" style="stop-color:#e8e0f0"/>
      <stop offset="50%" style="stop-color:#ffffff"/>
      <stop offset="100%" style="stop-color:#e8e0f0"/>
    </linearGradient>
    <linearGradient id="stripeGrad" x1="0%" y1="0%" x2="100%" y2="0%">
      <stop offset="0%" style="stop-color:#ff4500;stop-opacity:0"/>
      <stop offset="20%" style="stop-color:#ffd700"/>
      <stop offset="50%" style="stop-color:#ff8c00"/>
      <stop offset="80%" style="stop-color:#ffd700"/>
      <stop offset="100%" style="stop-color:#ff4500;stop-opacity:0"/>
    </linearGradient>
    <filter id="titleGlow" x="-20%" y="-40%" width="140%" height="180%">
      <feGaussianBlur stdDeviation="6" result="blur"/>
      <feFlood flood-color="#ff8c00" flood-opacity="0.5" result="color"/>
      <feComposite in="color" in2="blur" operator="in" result="glow"/>
      <feMerge>
        <feMergeNode in="glow"/>
        <feMergeNode in="glow"/>
        <feMergeNode in="SourceGraphic"/>
      </feMerge>
    </filter>
    <filter id="iconGlow" x="-30%" y="-30%" width="160%" height="160%">
      <feGaussianBlur stdDeviation="3" result="blur"/>
      <feMerge>
        <feMergeNode in="blur"/>
        <feMergeNode in="SourceGraphic"/>
      </feMerge>
    </filter>
    <radialGradient id="centerGlow" cx="50%" cy="50%" r="45%">
      <stop offset="0%" style="stop-color:#2a1040;stop-opacity:0.8"/>
      <stop offset="100%" style="stop-color:transparent;stop-opacity:0"/>
    </radialGradient>
    <radialGradient id="vignette" cx="50%" cy="50%" r="75%">
      <stop offset="0%" style="stop-color:transparent;stop-opacity:0"/>
      <stop offset="100%" style="stop-color:#000000;stop-opacity:0.65"/>
    </radialGradient>
  </defs>

  <!-- BACKGROUND -->
  <rect width="900" height="420" fill="url(#bgGrad)"/>
  <rect width="900" height="420" fill="url(#centerGlow)"/>
  <!-- Diagonal texture lines -->
  <g opacity="0.04" stroke="#ffffff" stroke-width="0.5">
    <line x1="0" y1="0" x2="900" y2="420"/>
    <line x1="150" y1="0" x2="900" y2="280"/>
    <line x1="300" y1="0" x2="900" y2="140"/>
    <line x1="0" y1="140" x2="600" y2="420"/>
    <line x1="0" y1="280" x2="300" y2="420"/>
  </g>
  <!-- Accent stripes top/bottom -->
  <rect x="0" y="0" width="900" height="6" fill="url(#stripeGrad)"/>
  <rect x="0" y="414" width="900" height="6" fill="url(#stripeGrad)"/>
  <!-- Side gold lines -->
  <line x1="4" y1="6" x2="4" y2="414" stroke="#ffd700" stroke-width="4" opacity="0.5"/>
  <line x1="896" y1="6" x2="896" y2="414" stroke="#ffd700" stroke-width="4" opacity="0.5"/>

  <!-- ======== BASKETBALL (top-left) ======== -->
  <g transform="translate(82, 72) rotate(-12)" opacity="0.85" filter="url(#iconGlow)">
    <circle cx="0" cy="0" r="36" fill="#e8650a" stroke="#c45000" stroke-width="1.5"/>
    <path d="M-36,0 Q-16,-20 0,-22 Q16,-20 36,0" fill="none" stroke="#7a2800" stroke-width="2.2"/>
    <path d="M-36,0 Q-16,20 0,22 Q16,20 36,0" fill="none" stroke="#7a2800" stroke-width="2.2"/>
    <path d="M0,-36 Q14,-16 14,0 Q14,16 0,36" fill="none" stroke="#7a2800" stroke-width="2.2"/>
    <path d="M0,-36 Q-14,-16 -14,0 Q-14,16 0,36" fill="none" stroke="#7a2800" stroke-width="2.2"/>
    <ellipse cx="-11" cy="-13" rx="8" ry="5" fill="white" opacity="0.18" transform="rotate(-20)"/>
  </g>

  <!-- ======== FOOTBALL (top-right) ======== -->
  <g transform="translate(808, 78) rotate(25)" opacity="0.85" filter="url(#iconGlow)">
    <ellipse cx="0" cy="0" rx="40" ry="23" fill="#7a4a10" stroke="#5a3008" stroke-width="1.5"/>
    <ellipse cx="0" cy="0" rx="40" ry="23" fill="url(#fbTex)" opacity="0.1"/>
    <!-- Lacing -->
    <line x1="0" y1="-11" x2="0" y2="11" stroke="#f0d080" stroke-width="2.2"/>
    <line x1="-8" y1="-8" x2="8" y2="-8" stroke="#f0d080" stroke-width="1.8"/>
    <line x1="-9" y1="-3" x2="9" y2="-3" stroke="#f0d080" stroke-width="1.8"/>
    <line x1="-9" y1="3" x2="9" y2="3" stroke="#f0d080" stroke-width="1.8"/>
    <line x1="-8" y1="8" x2="8" y2="8" stroke="#f0d080" stroke-width="1.8"/>
    <!-- End seams -->
    <path d="M-32,0 Q-22,-9 -11,-7" fill="none" stroke="#5a3008" stroke-width="1.8"/>
    <path d="M-32,0 Q-22,9 -11,7" fill="none" stroke="#5a3008" stroke-width="1.8"/>
    <path d="M32,0 Q22,-9 11,-7" fill="none" stroke="#5a3008" stroke-width="1.8"/>
    <path d="M32,0 Q22,9 11,7" fill="none" stroke="#5a3008" stroke-width="1.8"/>
    <ellipse cx="-13" cy="-8" rx="7" ry="4" fill="white" opacity="0.15" transform="rotate(20)"/>
  </g>

  <!-- ======== TENNIS RACKET (bottom-left) ======== -->
  <g transform="translate(62, 318) rotate(-38)" opacity="0.8" filter="url(#iconGlow)">
    <!-- Handle -->
    <rect x="-5.5" y="28" width="11" height="54" rx="4" fill="#a07830" stroke="#7a5820" stroke-width="1"/>
    <!-- Grip tape -->
    <rect x="-5.5" y="50" width="11" height="5" rx="1" fill="#222" opacity="0.55"/>
    <rect x="-5.5" y="58" width="11" height="5" rx="1" fill="#222" opacity="0.55"/>
    <rect x="-5.5" y="66" width="11" height="5" rx="1" fill="#222" opacity="0.55"/>
    <!-- Throat -->
    <path d="M-5.5,28 Q-12,18 -15,8 L15,8 Q12,18 5.5,28 Z" fill="#999" stroke="#777" stroke-width="1"/>
    <!-- Frame -->
    <ellipse cx="0" cy="-10" rx="30" ry="36" fill="none" stroke="#e0c060" stroke-width="5.5"/>
    <!-- Strings H -->
    <line x1="-28" y1="-22" x2="28" y2="-22" stroke="#eee" stroke-width="1" opacity="0.75"/>
    <line x1="-30" y1="-15" x2="30" y2="-15" stroke="#eee" stroke-width="1" opacity="0.75"/>
    <line x1="-30" y1="-8" x2="30" y2="-8" stroke="#eee" stroke-width="1" opacity="0.75"/>
    <line x1="-30" y1="-1" x2="30" y2="-1" stroke="#eee" stroke-width="1" opacity="0.75"/>
    <line x1="-30" y1="6" x2="30" y2="6" stroke="#eee" stroke-width="1" opacity="0.75"/>
    <line x1="-28" y1="13" x2="28" y2="13" stroke="#eee" stroke-width="1" opacity="0.75"/>
    <line x1="-22" y1="20" x2="22" y2="20" stroke="#eee" stroke-width="1" opacity="0.75"/>
    <!-- Strings V -->
    <line x1="-22" y1="-45" x2="-22" y2="24" stroke="#eee" stroke-width="1" opacity="0.75"/>
    <line x1="-15" y1="-45" x2="-15" y2="28" stroke="#eee" stroke-width="1" opacity="0.75"/>
    <line x1="-8" y1="-46" x2="-8" y2="29" stroke="#eee" stroke-width="1" opacity="0.75"/>
    <line x1="-1" y1="-46" x2="-1" y2="29" stroke="#eee" stroke-width="1" opacity="0.75"/>
    <line x1="6" y1="-46" x2="6" y2="29" stroke="#eee" stroke-width="1" opacity="0.75"/>
    <line x1="13" y1="-45" x2="13" y2="28" stroke="#eee" stroke-width="1" opacity="0.75"/>
    <line x1="20" y1="-45" x2="20" y2="24" stroke="#eee" stroke-width="1" opacity="0.75"/>
    <!-- Frame again on top -->
    <ellipse cx="0" cy="-10" rx="30" ry="36" fill="none" stroke="#e0c060" stroke-width="5.5"/>
  </g>
  <!-- Tennis Ball -->
  <g transform="translate(138, 354) rotate(12)" opacity="0.88" filter="url(#iconGlow)">
    <circle cx="0" cy="0" r="21" fill="#c8e030" stroke="#a0b820" stroke-width="1.2"/>
    <path d="M-15,-15 Q0,-4 15,-15" fill="none" stroke="white" stroke-width="2.8"/>
    <path d="M-15,15 Q0,4 15,15" fill="none" stroke="white" stroke-width="2.8"/>
    <ellipse cx="-6" cy="-7" rx="5" ry="3" fill="white" opacity="0.28" transform="rotate(-15)"/>
  </g>

  <!-- ======== SKIS + POLES (bottom-right) ======== -->
  <g transform="translate(790, 338)" opacity="0.8" filter="url(#iconGlow)">
    <!-- Ski 1 (top) -->
    <rect x="-46" y="-9" width="118" height="9" rx="4.5" fill="#1565c0" stroke="#0d47a1" stroke-width="1"/>
    <path d="M72,-9 Q86,-4 72,0" fill="#1565c0" stroke="#0d47a1" stroke-width="1"/>
    <rect x="12" y="-14" width="22" height="18" rx="2.5" fill="#ddd" stroke="#bbb" stroke-width="1"/>
    <!-- Ski 2 (bottom) -->
    <rect x="-46" y="5" width="118" height="9" rx="4.5" fill="#e53935" stroke="#c62828" stroke-width="1"/>
    <path d="M72,5 Q86,10 72,14" fill="#e53935" stroke="#c62828" stroke-width="1"/>
    <rect x="12" y="0" width="22" height="18" rx="2.5" fill="#ddd" stroke="#bbb" stroke-width="1"/>
    <!-- Pole left -->
    <line x1="-20" y1="-44" x2="-10" y2="44" stroke="#bbb" stroke-width="3.5" stroke-linecap="round"/>
    <circle cx="-16" cy="14" r="8" fill="none" stroke="#bbb" stroke-width="2.2"/>
    <circle cx="-19" cy="-38" r="4.5" fill="#999"/>
    <!-- Pole right -->
    <line x1="14" y1="-44" x2="4" y2="44" stroke="#bbb" stroke-width="3.5" stroke-linecap="round"/>
    <circle cx="8" cy="14" r="8" fill="none" stroke="#bbb" stroke-width="2.2"/>
    <circle cx="13" cy="-38" r="4.5" fill="#999"/>
  </g>

  <!-- ======== SOCCER BALL (top-center-right) ======== -->
  <g transform="translate(666, 70) rotate(8)" opacity="0.8" filter="url(#iconGlow)">
    <circle cx="0" cy="0" r="32" fill="white" stroke="#ccc" stroke-width="1"/>
    <polygon points="0,-19 10,-14 10,-4 0,3 -10,-4 -10,-14" fill="#1a1a1a"/>
    <polygon points="0,-32 9,-25 5,-15 -5,-15 -9,-25" fill="#1a1a1a" opacity="0.8"/>
    <polygon points="29,-11 32,0 23,8 14,7 13,-4 21,-15" fill="#1a1a1a" opacity="0.8"/>
    <polygon points="-29,-11 -32,0 -23,8 -14,7 -13,-4 -21,-15" fill="#1a1a1a" opacity="0.8"/>
    <polygon points="18,24 8,30 0,26 0,15 10,11 19,16" fill="#1a1a1a" opacity="0.8"/>
    <polygon points="-18,24 -8,30 0,26 0,15 -10,11 -19,16" fill="#1a1a1a" opacity="0.8"/>
    <ellipse cx="-9" cy="-12" rx="8" ry="5" fill="white" opacity="0.35" transform="rotate(-20)"/>
  </g>

  <!-- ======== BASEBALL (top-center-left) ======== -->
  <g transform="translate(242, 66) rotate(6)" opacity="0.8" filter="url(#iconGlow)">
    <circle cx="0" cy="0" r="27" fill="#f5f0e8" stroke="#ddd" stroke-width="1"/>
    <path d="M-15,-21 Q-23,-9 -23,0 Q-23,9 -15,21" fill="none" stroke="#cc2200" stroke-width="2.2"/>
    <line x1="-15" y1="-21" x2="-19" y2="-17" stroke="#cc2200" stroke-width="1.8"/>
    <line x1="-17" y1="-13" x2="-21" y2="-9" stroke="#cc2200" stroke-width="1.8"/>
    <line x1="-18" y1="-5" x2="-22" y2="-2" stroke="#cc2200" stroke-width="1.8"/>
    <line x1="-18" y1="5" x2="-22" y2="7" stroke="#cc2200" stroke-width="1.8"/>
    <line x1="-17" y1="13" x2="-21" y2="15" stroke="#cc2200" stroke-width="1.8"/>
    <line x1="-15" y1="21" x2="-19" y2="18" stroke="#cc2200" stroke-width="1.8"/>
    <path d="M15,-21 Q23,-9 23,0 Q23,9 15,21" fill="none" stroke="#cc2200" stroke-width="2.2"/>
    <line x1="15" y1="-21" x2="19" y2="-17" stroke="#cc2200" stroke-width="1.8"/>
    <line x1="17" y1="-13" x2="21" y2="-9" stroke="#cc2200" stroke-width="1.8"/>
    <line x1="18" y1="-5" x2="22" y2="-2" stroke="#cc2200" stroke-width="1.8"/>
    <line x1="18" y1="5" x2="22" y2="7" stroke="#cc2200" stroke-width="1.8"/>
    <line x1="17" y1="13" x2="21" y2="15" stroke="#cc2200" stroke-width="1.8"/>
    <line x1="15" y1="21" x2="19" y2="18" stroke="#cc2200" stroke-width="1.8"/>
    <ellipse cx="-7" cy="-9" rx="5" ry="3" fill="white" opacity="0.35" transform="rotate(-15)"/>
  </g>

  <!-- ======== GOLF BALL + CLUB (top-center) ======== -->
  <g transform="translate(454, 54) rotate(-5)" opacity="0.78" filter="url(#iconGlow)">
    <line x1="-8" y1="-28" x2="20" y2="32" stroke="#c0c0c0" stroke-width="3.5" stroke-linecap="round"/>
    <ellipse cx="24" cy="38" rx="15" ry="9" fill="#888" stroke="#666" stroke-width="1.5" transform="rotate(-22, 24, 38)"/>
    <circle cx="-18" cy="-20" r="17" fill="white" stroke="#ccc" stroke-width="1"/>
    <!-- Dimples -->
    <circle cx="-22" cy="-24" r="2.2" fill="#e0e0e0"/>
    <circle cx="-13" cy="-24" r="2.2" fill="#e0e0e0"/>
    <circle cx="-22" cy="-15" r="2.2" fill="#e0e0e0"/>
    <circle cx="-13" cy="-15" r="2.2" fill="#e0e0e0"/>
    <circle cx="-18" cy="-28" r="2.2" fill="#e0e0e0"/>
    <circle cx="-18" cy="-11" r="2.2" fill="#e0e0e0"/>
    <circle cx="-9" cy="-20" r="2.2" fill="#e0e0e0"/>
    <circle cx="-27" cy="-20" r="2.2" fill="#e0e0e0"/>
  </g>

  <!-- ======== HOCKEY PUCK + STICK (bottom-center-left) ======== -->
  <g transform="translate(298, 362) rotate(-18)" opacity="0.78" filter="url(#iconGlow)">
    <rect x="-4.5" y="-58" width="9" height="74" rx="3.5" fill="#c8a060" stroke="#a07840" stroke-width="1"/>
    <rect x="-4.5" y="14" width="34" height="11" rx="3.5" fill="#c8a060" stroke="#a07840" stroke-width="1"/>
    <rect x="-4.5" y="-58" width="9" height="9" rx="2" fill="#111" opacity="0.5"/>
    <rect x="-4.5" y="-46" width="9" height="9" rx="2" fill="#111" opacity="0.5"/>
    <rect x="-4.5" y="-34" width="9" height="9" rx="2" fill="#111" opacity="0.5"/>
    <ellipse cx="30" cy="31" rx="23" ry="8" fill="#1a1a1a" stroke="#333" stroke-width="1.5"/>
    <ellipse cx="30" cy="29" rx="23" ry="8" fill="#2d2d2d" stroke="#444" stroke-width="1.5"/>
  </g>

  <!-- ======== SWIMMER (bottom-center-right) ======== -->
  <g transform="translate(560, 364)" opacity="0.7" filter="url(#iconGlow)">
    <ellipse cx="0" cy="0" rx="32" ry="11" fill="#1565c0" opacity="0.85"/>
    <circle cx="-32" cy="-5" r="10" fill="#ffcc99"/>
    <path d="M-42,-5 Q-38,-16 -23,-12 Q-19,-11 -22,-5" fill="#e53935"/>
    <rect x="-40" y="-7" width="9" height="5" rx="2" fill="#1a1a2e" opacity="0.85"/>
    <path d="M-23,-5 Q-5,-22 20,-9" fill="none" stroke="#ffcc99" stroke-width="5.5" stroke-linecap="round"/>
    <path d="M-10,5 Q12,18 30,9" fill="none" stroke="#ffcc99" stroke-width="4.5" stroke-linecap="round" opacity="0.7"/>
    <path d="M-42,9 Q-22,20 0,9 Q22,20 42,9" fill="none" stroke="#60b4ff" stroke-width="2.2" opacity="0.75"/>
    <path d="M-38,15 Q-16,24 6,15 Q28,24 48,15" fill="none" stroke="#60b4ff" stroke-width="1.8" opacity="0.5"/>
  </g>

  <!-- ======== TROPHY (left-mid) ======== -->
  <g transform="translate(175, 205)" opacity="0.65" filter="url(#iconGlow)">
    <path d="M-20,-32 Q-24,-12 -17,10 Q-9,26 0,28 Q9,26 17,10 Q24,-12 20,-32 Z" fill="#ffd700" stroke="#cc9900" stroke-width="1.5"/>
    <path d="M-13,-30 Q-16,-12 -10,8 Q-4,22 0,24 Q4,22 10,8 Q16,-12 13,-30 Z" fill="#ffec60" opacity="0.4"/>
    <path d="M-20,-22 Q-34,-20 -32,-10 Q-30,0 -17,4" fill="none" stroke="#ffd700" stroke-width="4.5" stroke-linecap="round"/>
    <path d="M20,-22 Q34,-20 32,-10 Q30,0 17,4" fill="none" stroke="#ffd700" stroke-width="4.5" stroke-linecap="round"/>
    <rect x="-5.5" y="28" width="11" height="15" rx="2.5" fill="#cc9900"/>
    <rect x="-20" y="41" width="40" height="9" rx="3.5" fill="#cc9900"/>
    <text x="0" y="-8" font-size="18" text-anchor="middle" fill="white" opacity="0.75">★</text>
  </g>

  <!-- ======== RUNNER (right-center) ======== -->
  <g transform="translate(730, 218)" opacity="0.68" filter="url(#iconGlow)">
    <circle cx="0" cy="-46" r="11" fill="#ffcc99"/>
    <line x1="0" y1="-35" x2="0" y2="-10" stroke="#e53935" stroke-width="6.5" stroke-linecap="round"/>
    <line x1="0" y1="-30" x2="-22" y2="-14" stroke="#ffcc99" stroke-width="4.5" stroke-linecap="round"/>
    <line x1="0" y1="-30" x2="20" y2="-20" stroke="#ffcc99" stroke-width="4.5" stroke-linecap="round"/>
    <line x1="0" y1="-10" x2="-20" y2="11" stroke="#1565c0" stroke-width="5.5" stroke-linecap="round"/>
    <line x1="-20" y1="11" x2="-9" y2="30" stroke="#1565c0" stroke-width="5.5" stroke-linecap="round"/>
    <line x1="0" y1="-10" x2="18" y2="7" stroke="#1565c0" stroke-width="5.5" stroke-linecap="round"/>
    <line x1="18" y1="7" x2="26" y2="26" stroke="#1565c0" stroke-width="5.5" stroke-linecap="round"/>
    <ellipse cx="-7" cy="33" rx="9" ry="4.5" fill="#e53935"/>
    <ellipse cx="28" cy="29" rx="9" ry="4.5" fill="#e53935"/>
    <!-- Motion lines -->
    <line x1="-32" y1="0" x2="-46" y2="0" stroke="#ffd700" stroke-width="2.2" opacity="0.65"/>
    <line x1="-30" y1="-10" x2="-44" y2="-12" stroke="#ffd700" stroke-width="1.8" opacity="0.5"/>
    <line x1="-30" y1="10" x2="-42" y2="12" stroke="#ffd700" stroke-width="1.8" opacity="0.4"/>
  </g>

  <!-- ======== MAIN TITLE ======== -->
  <!-- Panel behind text -->
  <rect x="186" y="148" width="528" height="136" rx="12" fill="#0f0a1e" opacity="0.58"/>
  <rect x="188" y="150" width="524" height="132" rx="11" fill="none" stroke="#ffd700" stroke-width="0.6" opacity="0.35"/>

  <!-- LANE'S -->
  <text
    x="450"
    y="218"
    font-family="'Georgia', 'Times New Roman', 'Palatino Linotype', serif"
    font-size="74"
    font-weight="900"
    font-style="italic"
    letter-spacing="14"
    text-anchor="middle"
    fill="url(#titleGrad)"
    filter="url(#titleGlow)"
  >LANE'S</text>

  <!-- Divider -->
  <line x1="235" y1="232" x2="665" y2="232" stroke="url(#stripeGrad)" stroke-width="1.8" opacity="0.75"/>

  <!-- SPORTSDATA -->
  <text
    x="450"
    y="272"
    font-family="'Georgia', 'Times New Roman', 'Palatino Linotype', serif"
    font-size="46"
    font-weight="700"
    letter-spacing="20"
    text-anchor="middle"
    fill="url(#subGrad)"
    opacity="0.95"
  >SPORTSDATA</text>

  <!-- Tagline -->
  <text
    x="450"
    y="385"
    font-family="'Courier New', 'Lucida Console', monospace"
    font-size="11"
    letter-spacing="5"
    text-anchor="middle"
    fill="#ffd700"
    opacity="0.5"
  >STATS  ·  SCORES  ·  ANALYTICS  ·  LIVE DATA</text>

  <!-- Vignette overlay -->
  <rect width="900" height="420" fill="url(#vignette)"/>
</svg>
